<?xml version="1.0" encoding="UTF-8"?><svg id="_レイヤー_2" xmlns="http://www.w3.org/2000/svg" viewBox="0 0 81.58 24"><defs><style>.cls-1{fill:#fff;}</style></defs><g id="_レイヤー_8"><path class="cls-1" d="M6.12,0v24H0V0h6.12Z"/><path class="cls-1" d="M17.6,4.64h-8.87V0h23.83v4.64h-8.84v19.36h-6.12V4.64Z"/><path class="cls-1" d="M33.73,19.77l14.19-15.23h-13.51V0h20.68v4.56l-13.92,14.89h15.03l-.64,4.54h-21.84v-4.23Z"/><path class="cls-1" d="M65.82,24v-8.59c0-.32-.09-.49-.29-.78L55.8,0h6.78c2.3,3.76,5.2,8.33,6.33,10.59,1.2-2.24,4.15-6.83,6.46-10.59h6.21l-9.89,14.87c-.13.2-.14.33-.14.64v8.49h-5.74Z"/></g></svg>